<?xml version="1.0" encoding="utf-8"?>
<!-- Generator: Adobe Illustrator 27.0.0, SVG Export Plug-In . SVG Version: 6.00 Build 0)  -->
<svg version="1.1" id="Calque_1" xmlns="http://www.w3.org/2000/svg" xmlns:xlink="http://www.w3.org/1999/xlink" x="0px" y="0px"
	 viewBox="0 0 1000 1000" style="enable-background:new 0 0 1000 1000;" xml:space="preserve">
<style type="text/css">
	.st0{fill:url(#SVGID_1_);}
</style>
<g>
	<linearGradient id="SVGID_1_" gradientUnits="userSpaceOnUse" x1="136.2506" y1="659.5403" x2="917.0552" y2="208.7426">
		<stop  offset="4.958784e-03" style="stop-color:#9945FF"/>
		<stop  offset="0.9929" style="stop-color:#14F195"/>
	</linearGradient>
	<path class="st0" d="M769.9,65c-61.4,0-111.1,49.7-111.1,111.1c0,61.4,49.7,111.1,111.1,111.1S881,237.5,881,176.1
		C881,114.7,831.3,65,769.9,65z M770.6,230.9c-29.9,0-54.1-24.2-54.1-54.1s24.2-54.1,54.1-54.1c29.9,0,54.1,24.2,54.1,54.1
		S800.5,230.9,770.6,230.9z M920,449.4c0,232-188,420-420,420s-420-188-420-420c0-151.4,80.1-284.1,200.3-358c0,0,7.7-4.4,17.2-4.4
		c17.4,0,30.5,13.1,30.5,30.5c0,13.4-10,22.5-19.2,30.4C219.3,224.9,143,322.6,143,449.4c0,197.2,159.8,357,357,357
		s357-159.8,357-357c0-40.4-6.7-79.1-19-115.3c0,0-1-2.6-1-9.1c0-17.4,14.1-31,31.5-31c15.2,0,26.5,11,30.8,25
		C912.7,360,920,403.9,920,449.4z"/>
</g>
</svg>
