<?xml version="1.0" standalone="no"?>
<!DOCTYPE svg PUBLIC "-//W3C//DTD SVG 20010904//EN"
 "http://www.w3.org/TR/2001/REC-SVG-20010904/DTD/svg10.dtd">
<svg version="1.0" xmlns="http://www.w3.org/2000/svg"
 width="700.000000pt" height="700.000000pt" viewBox="0 0 700.000000 700.000000"
 preserveAspectRatio="xMidYMid meet">
<metadata>
Created by potrace 1.14, written by Peter Selinger 2001-2017
</metadata>
<g transform="translate(0.000000,700.000000) scale(0.100000,-0.100000)"
fill="#000000" stroke="none">
<path d="M5290 6538 c-302 -43 -527 -227 -638 -523 -54 -143 -48 -382 14 -535
95 -235 318 -423 564 -474 84 -18 232 -18 314 -1 232 49 434 203 540 413 108
213 108 480 1 694 -149 297 -475 472 -795 426z m210 -414 c171 -51 278 -203
268 -383 -18 -318 -393 -471 -627 -256 -139 128 -164 325 -61 485 89 137 263
201 420 154z"/>
<path d="M1998 6376 c-55 -21 -259 -162 -376 -260 -228 -189 -430 -419 -598
-677 -63 -96 -188 -330 -226 -424 -70 -168 -147 -406 -164 -505 -3 -14 -7 -33
-10 -42 -11 -36 -41 -231 -52 -338 -9 -89 -9 -457 1 -555 10 -98 26 -215 31
-224 2 -3 7 -26 10 -51 3 -25 17 -90 32 -145 14 -55 29 -116 33 -135 9 -36 65
-200 81 -235 5 -11 21 -49 36 -85 65 -160 190 -383 308 -549 236 -333 580
-645 943 -854 62 -36 287 -147 298 -147 3 0 24 -9 48 -19 81 -37 271 -100 377
-126 68 -16 202 -45 235 -49 22 -4 54 -9 70 -11 290 -48 738 -35 1021 30 34 8
73 16 85 19 99 18 333 96 484 161 335 143 640 351 905 615 220 219 397 459
534 721 60 115 153 323 161 359 2 8 13 42 24 75 25 69 74 254 90 335 6 30 14
66 16 80 3 14 7 39 9 55 3 17 10 71 17 120 14 101 18 498 6 620 -19 189 -63
408 -119 590 -49 158 -130 225 -256 212 -150 -16 -223 -150 -172 -318 42 -137
76 -283 86 -364 3 -22 7 -50 9 -62 19 -90 26 -447 12 -587 -47 -450 -211 -874
-479 -1238 -58 -80 -174 -216 -228 -268 -212 -206 -406 -348 -632 -463 -135
-69 -243 -117 -262 -117 -7 0 -16 -4 -22 -9 -13 -11 -191 -66 -294 -90 -85
-20 -109 -25 -185 -36 -23 -3 -52 -7 -65 -10 -87 -17 -340 -23 -505 -12 -698
46 -1368 408 -1795 970 -38 50 -74 97 -78 102 -4 6 -27 40 -50 78 -217 345
-341 709 -381 1117 -8 84 -7 427 2 465 3 11 8 45 12 75 59 441 303 928 671
1340 85 95 305 313 409 405 118 103 149 137 174 187 39 80 5 195 -75 251 -50
35 -146 46 -206 23z"/>
</g>
</svg>
